<?xml version="1.0" encoding="utf-8"?>
<!-- Generator: Adobe Illustrator 21.0.0, SVG Export Plug-In . SVG Version: 6.00 Build 0)  -->
<svg version="1.1" id="Layer_1" xmlns="http://www.w3.org/2000/svg" xmlns:xlink="http://www.w3.org/1999/xlink" x="0px" y="0px"
	 viewBox="0 0 800 600" style="enable-background:new 0 0 800 600;" xml:space="preserve">
<style type="text/css">
	.st0{fill:#302D31;}
	.st1{fill:#322E32;}
	.st2{fill:#4D20EC;}
	.st3{fill:#805CE4;}
	.st4{fill:#D4D5D5;}
</style>
<g>
	<path class="st0" d="M359.8,373c-5.7,1.2-14,5.5-16.6,3.2c-27.5-24-59.8-45.2-75-78.9c-5.6-12.4-9.1-16.6-20.4-17.5
		c-3-0.2-6.1-0.1-8.9-0.9c-16.2-4.6-41,3.7-45.9-18.2c-4.2-18.5,17.9-26.7,30.5-36.7c37.7-29.6,81.4-45.9,128.7-50.8
		c16.1-1.7,27.2-7.8,38.7-18.5C456.2,93.5,533,57.2,622.6,49.4c41.2-3.6,49.9,4.5,43.4,44.1C652.1,178,619.6,254,558.4,315.6
		c-13.5,13.6-20,27.5-22.1,46.6c-5.6,52-27.9,97-62.7,135.9c-7.3,8.2-14.2,17.8-27.3,14c-12.4-3.5-11.2-14.7-12.5-24.4
		c-1.2-8.9-3.6-17.6-4.6-26.5c-1.3-11.9-2.1-18.8-18.6-23.1c-14.5-3.8-43.3-12.7-28.3-42.7c12.7-14.6,28.4,15.7,40.8-2.7
		c31.8-27.1,64.6-53,95.1-81.4c59.3-55.2,97.2-122.3,111.6-203c4.6-25.7-4.1-30.1-25.8-26c-31.3,5.9-62.3,12.9-90.2,29.1
		c-5.4,0-10.3,1-13.3,6.2l0.3-0.2c-3.6,0.4-6.5,1.5-6.6,5.8l0.2-0.5c-8.6,0.1-17.1,0.4-18.5,11.9l-0.5-0.4
		c-15.7-0.8-25.2,10.9-35.6,19.2c-35.2,27.9-64.6,61.8-94.1,95.5c-41.1,47-40.7,47.4,3.2,91.8C357.7,349.7,370.1,357.5,359.8,373z
		 M338.3,207c-34,6.2-63.7,17.5-92.1,40.3C304.8,258.4,308,256.9,338.3,207z M496.2,395.9c-1.4-5-1.2-11.2-4.2-13.7
		c-4.2-3.5-8.9,0.5-12.5,4.1c-7.6,7.6-16.9,14-22.8,22.6c-8.3,12,1.2,24.1,4.5,35.5c1.4,5,9,1.8,11.8-2.3
		C482.8,427.8,493.1,413.6,496.2,395.9z"/>
	<path class="st1" d="M332.2,447c-0.9,17.3-10,35.2-29.5,46.8c-35.2,21-74,32.8-113.1,43.7c-18.1,5-27.9-2.9-22.4-21.9
		c10.8-37.1,23.3-73.9,42.5-107.6c15.3-26.8,45.9-37.9,74.2-29.5C314.7,387.7,332.9,411.6,332.2,447z M274.2,409.6
		c-17.2-8.5-29,1.1-37.2,13.7c-14.4,22.1-23.1,46.8-28.8,73.7c14.7,0.1,25-5.2,35.4-10.6c11.8-4.8,23.7-9.2,35.3-14.5
		c13.4-6.2,22.6-16.5,21.6-32C299.4,423.8,292.1,411.8,274.2,409.6z"/>
	<path class="st2" d="M359.8,373c10.3-15.5-2.1-23.3-11-32.3c-43.8-44.4-44.2-44.8-3.2-91.8c29.4-33.7,58.8-67.6,94.1-95.5
		c10.5-8.3,19.9-20,35.6-19.2c-42.6,46.3-84.8,92.9-127.8,138.9c-24.4,26.1-25.2,27.2,3.5,49.5c26.7,20.7,49.7,45,72.1,70.1
		c-12.4,18.4-28.1-11.9-40.8,2.7C374.8,387.9,367.3,380.4,359.8,373z"/>
	<path class="st3" d="M423.1,392.7c-22.4-25-45.4-49.3-72.1-70.1c-28.7-22.3-27.8-23.4-3.5-49.5c42.9-46,85.2-92.5,127.8-138.9
		c0,0,0.5,0.4,0.5,0.4c9.4,1.1,15.3-3.3,18.5-11.9c0,0-0.2,0.5-0.2,0.4c2.2-1.9,4.4-3.9,6.6-5.8c0,0-0.3,0.2-0.3,0.2
		c5.6,0.4,10.2-1.4,13.3-6.2c28-16.3,58.9-23.2,90.2-29.1c21.7-4.1,30.4,0.3,25.8,26c-14.3,80.7-52.2,147.8-111.6,203
		C487.8,339.7,454.9,365.6,423.1,392.7z M520,241.5c27.2,0.7,52.4-23,53.2-50c0.9-29.1-23.5-54.6-51.9-54.3
		c-27.6,0.3-51.4,24-51.5,51.5C469.7,216.9,492.4,240.8,520,241.5z"/>
	<path class="st4" d="M338.3,207c-30.3,50-33.5,51.4-92.1,40.3C274.6,224.4,304.2,213.1,338.3,207z"/>
	<path class="st4" d="M496.2,395.9c-3.1,17.7-13.5,31.9-23.2,46.2c-2.8,4.1-10.4,7.3-11.8,2.3c-3.3-11.4-12.8-23.5-4.5-35.5
		c6-8.7,15.2-15.1,22.8-22.6c3.7-3.6,8.4-7.6,12.5-4.1C495,384.8,494.9,391,496.2,395.9z"/>
	<path class="st2" d="M494.4,122.8c-3.2,8.6-9.1,13-18.5,11.9C477.2,123.2,485.7,122.9,494.4,122.8z"/>
	<path class="st2" d="M513.8,111.4c-3.1,4.8-7.7,6.6-13.3,6.2C503.4,112.4,508.4,111.4,513.8,111.4z"/>
	<path class="st2" d="M500.8,117.4c-2.2,1.9-4.4,3.9-6.6,5.8C494.2,118.9,497.2,117.8,500.8,117.4z"/>
	<path class="st2" d="M243.5,486.5c-10.3,5.3-20.6,10.7-35.4,10.6c5.8-26.9,14.4-51.7,28.8-73.7c8.2-12.6,20.1-22.2,37.2-13.7
		C261.9,434.4,246.2,457.9,243.5,486.5z"/>
	<path class="st3" d="M243.5,486.5c2.7-28.6,18.4-52.1,30.7-76.9c17.9,2.2,25.2,14.2,26.2,30.3c0.9,15.6-8.2,25.8-21.6,32
		C267.2,477.3,255.2,481.7,243.5,486.5z"/>
	<path class="st0" d="M520,241.5c-27.6-0.7-50.3-24.6-50.2-52.8c0.1-27.5,23.8-51.3,51.5-51.5c28.5-0.3,52.8,25.2,51.9,54.3
		C572.4,218.5,547.2,242.1,520,241.5z M536.8,189.6c1.3-11.9-2.9-19.4-15.7-19.4c-11.4,0-19,5.7-19.8,17.2c-1,12.9,6.3,20.2,19,21.2
		C533.8,209.6,535.8,199.7,536.8,189.6z"/>
</g>
</svg>
